<mxfile host="app.diagrams.net" agent="Mozilla/5.0 (Windows NT 10.0; Win64; x64) AppleWebKit/537.36 (KHTML, like Gecko) Chrome/136.0.0.0 Safari/537.36" version="27.0.4">
  <diagram name="Page-1" id="Pr1fDkhmsT40Dm9eG8k2">
    <mxGraphModel grid="1" page="1" gridSize="10" guides="1" tooltips="1" connect="1" arrows="1" fold="1" pageScale="1" pageWidth="850" pageHeight="1100" math="0" shadow="0">
      <root>
        <mxCell id="0" />
        <mxCell id="1" parent="0" />
        <mxCell id="Qh6SgRIhUqhGLVtpY5pX-6" value="" style="edgeStyle=orthogonalEdgeStyle;rounded=0;orthogonalLoop=1;jettySize=auto;html=1;" edge="1" parent="1" source="Qh6SgRIhUqhGLVtpY5pX-2" target="Qh6SgRIhUqhGLVtpY5pX-5">
          <mxGeometry relative="1" as="geometry" />
        </mxCell>
        <mxCell id="Qh6SgRIhUqhGLVtpY5pX-2" value="test" style="rounded=0;whiteSpace=wrap;html=1;" vertex="1" parent="1">
          <mxGeometry x="110" y="310" width="120" height="60" as="geometry" />
        </mxCell>
        <mxCell id="Qh6SgRIhUqhGLVtpY5pX-8" style="edgeStyle=orthogonalEdgeStyle;rounded=0;orthogonalLoop=1;jettySize=auto;html=1;entryX=0;entryY=0.5;entryDx=0;entryDy=0;" edge="1" parent="1" source="Qh6SgRIhUqhGLVtpY5pX-3" target="Qh6SgRIhUqhGLVtpY5pX-7">
          <mxGeometry relative="1" as="geometry" />
        </mxCell>
        <mxCell id="Qh6SgRIhUqhGLVtpY5pX-3" value="beta" style="rounded=0;whiteSpace=wrap;html=1;" vertex="1" parent="1">
          <mxGeometry x="110" y="400" width="120" height="60" as="geometry" />
        </mxCell>
        <mxCell id="Qh6SgRIhUqhGLVtpY5pX-10" style="edgeStyle=orthogonalEdgeStyle;rounded=0;orthogonalLoop=1;jettySize=auto;html=1;entryX=0;entryY=0.5;entryDx=0;entryDy=0;" edge="1" parent="1" source="Qh6SgRIhUqhGLVtpY5pX-4" target="Qh6SgRIhUqhGLVtpY5pX-9">
          <mxGeometry relative="1" as="geometry" />
        </mxCell>
        <mxCell id="Qh6SgRIhUqhGLVtpY5pX-4" value="prod" style="rounded=0;whiteSpace=wrap;html=1;" vertex="1" parent="1">
          <mxGeometry x="110" y="500" width="120" height="60" as="geometry" />
        </mxCell>
        <mxCell id="Qh6SgRIhUqhGLVtpY5pX-12" value="" style="edgeStyle=orthogonalEdgeStyle;rounded=0;orthogonalLoop=1;jettySize=auto;html=1;" edge="1" parent="1" source="Qh6SgRIhUqhGLVtpY5pX-5" target="Qh6SgRIhUqhGLVtpY5pX-11">
          <mxGeometry relative="1" as="geometry" />
        </mxCell>
        <mxCell id="Qh6SgRIhUqhGLVtpY5pX-5" value="test deploy sha (this is probably actually just main)" style="rounded=0;whiteSpace=wrap;html=1;" vertex="1" parent="1">
          <mxGeometry x="310" y="310" width="120" height="60" as="geometry" />
        </mxCell>
        <mxCell id="Qh6SgRIhUqhGLVtpY5pX-7" value="beta deploy sha" style="rounded=0;whiteSpace=wrap;html=1;" vertex="1" parent="1">
          <mxGeometry x="310" y="400" width="120" height="60" as="geometry" />
        </mxCell>
        <mxCell id="Qh6SgRIhUqhGLVtpY5pX-21" style="edgeStyle=orthogonalEdgeStyle;rounded=0;orthogonalLoop=1;jettySize=auto;html=1;entryX=0;entryY=0.5;entryDx=0;entryDy=0;" edge="1" parent="1" source="Qh6SgRIhUqhGLVtpY5pX-9" target="Qh6SgRIhUqhGLVtpY5pX-15">
          <mxGeometry relative="1" as="geometry" />
        </mxCell>
        <mxCell id="Qh6SgRIhUqhGLVtpY5pX-9" value="prod deploy sha" style="rounded=0;whiteSpace=wrap;html=1;" vertex="1" parent="1">
          <mxGeometry x="310" y="500" width="120" height="60" as="geometry" />
        </mxCell>
        <mxCell id="Qh6SgRIhUqhGLVtpY5pX-27" style="edgeStyle=orthogonalEdgeStyle;rounded=0;orthogonalLoop=1;jettySize=auto;html=1;entryX=0;entryY=0.5;entryDx=0;entryDy=0;" edge="1" parent="1" source="Qh6SgRIhUqhGLVtpY5pX-11" target="Qh6SgRIhUqhGLVtpY5pX-25">
          <mxGeometry relative="1" as="geometry" />
        </mxCell>
        <mxCell id="Qh6SgRIhUqhGLVtpY5pX-11" value="Compare&lt;br&gt;FROM test&lt;br&gt;TO main" style="whiteSpace=wrap;html=1;rounded=0;" vertex="1" parent="1">
          <mxGeometry x="820" y="310" width="120" height="60" as="geometry" />
        </mxCell>
        <mxCell id="Qh6SgRIhUqhGLVtpY5pX-20" style="edgeStyle=orthogonalEdgeStyle;rounded=0;orthogonalLoop=1;jettySize=auto;html=1;entryX=0.5;entryY=1;entryDx=0;entryDy=0;" edge="1" parent="1" source="Qh6SgRIhUqhGLVtpY5pX-13" target="Qh6SgRIhUqhGLVtpY5pX-11">
          <mxGeometry relative="1" as="geometry" />
        </mxCell>
        <mxCell id="Qh6SgRIhUqhGLVtpY5pX-26" style="edgeStyle=orthogonalEdgeStyle;rounded=0;orthogonalLoop=1;jettySize=auto;html=1;" edge="1" parent="1" source="Qh6SgRIhUqhGLVtpY5pX-13" target="Qh6SgRIhUqhGLVtpY5pX-24">
          <mxGeometry relative="1" as="geometry" />
        </mxCell>
        <mxCell id="Qh6SgRIhUqhGLVtpY5pX-13" value="Compare&lt;br&gt;From beta&lt;div&gt;TO test&lt;/div&gt;" style="whiteSpace=wrap;html=1;rounded=0;" vertex="1" parent="1">
          <mxGeometry x="660" y="400" width="120" height="60" as="geometry" />
        </mxCell>
        <mxCell id="Qh6SgRIhUqhGLVtpY5pX-19" style="edgeStyle=orthogonalEdgeStyle;rounded=0;orthogonalLoop=1;jettySize=auto;html=1;entryX=0.5;entryY=1;entryDx=0;entryDy=0;" edge="1" parent="1" source="Qh6SgRIhUqhGLVtpY5pX-15" target="Qh6SgRIhUqhGLVtpY5pX-13">
          <mxGeometry relative="1" as="geometry" />
        </mxCell>
        <mxCell id="Qh6SgRIhUqhGLVtpY5pX-23" value="" style="edgeStyle=orthogonalEdgeStyle;rounded=0;orthogonalLoop=1;jettySize=auto;html=1;" edge="1" parent="1" source="Qh6SgRIhUqhGLVtpY5pX-15" target="Qh6SgRIhUqhGLVtpY5pX-22">
          <mxGeometry relative="1" as="geometry" />
        </mxCell>
        <mxCell id="Qh6SgRIhUqhGLVtpY5pX-15" value="Compare&lt;div&gt;FROM prod&lt;/div&gt;&lt;div&gt;TO beta&lt;/div&gt;" style="whiteSpace=wrap;html=1;rounded=0;" vertex="1" parent="1">
          <mxGeometry x="490" y="500" width="120" height="60" as="geometry" />
        </mxCell>
        <mxCell id="Qh6SgRIhUqhGLVtpY5pX-22" value="&lt;div style=&quot;text-align: left;&quot;&gt;&lt;span style=&quot;background-color: transparent; color: light-dark(rgb(0, 0, 0), rgb(255, 255, 255));&quot;&gt;PROD SUMMARY:&lt;/span&gt;&lt;/div&gt;&lt;div style=&quot;text-align: left;&quot;&gt;&lt;span style=&quot;background-color: transparent; color: light-dark(rgb(0, 0, 0), rgb(255, 255, 255));&quot;&gt;git diff&lt;/span&gt;&lt;/div&gt;&lt;div style=&quot;text-align: left;&quot;&gt;last successful deployment&lt;/div&gt;&lt;div&gt;&lt;br&gt;&lt;/div&gt;" style="whiteSpace=wrap;html=1;rounded=0;" vertex="1" parent="1">
          <mxGeometry x="1060" y="490" width="180" height="80" as="geometry" />
        </mxCell>
        <mxCell id="Qh6SgRIhUqhGLVtpY5pX-30" style="edgeStyle=orthogonalEdgeStyle;rounded=0;orthogonalLoop=1;jettySize=auto;html=1;entryX=0;entryY=0.5;entryDx=0;entryDy=0;" edge="1" parent="1" source="Qh6SgRIhUqhGLVtpY5pX-24" target="Qh6SgRIhUqhGLVtpY5pX-28">
          <mxGeometry relative="1" as="geometry" />
        </mxCell>
        <mxCell id="Qh6SgRIhUqhGLVtpY5pX-24" value="&lt;div style=&quot;text-align: left;&quot;&gt;&lt;span style=&quot;background-color: transparent; color: light-dark(rgb(0, 0, 0), rgb(255, 255, 255));&quot;&gt;BETA SUMMARY:&lt;/span&gt;&lt;/div&gt;&lt;div style=&quot;text-align: left;&quot;&gt;&lt;span style=&quot;background-color: transparent; color: light-dark(rgb(0, 0, 0), rgb(255, 255, 255));&quot;&gt;git diff&lt;/span&gt;&lt;/div&gt;&lt;div style=&quot;text-align: left;&quot;&gt;last successful deployment&lt;/div&gt;&lt;div&gt;&lt;br&gt;&lt;/div&gt;" style="whiteSpace=wrap;html=1;rounded=0;" vertex="1" parent="1">
          <mxGeometry x="1060" y="390" width="180" height="80" as="geometry" />
        </mxCell>
        <mxCell id="Qh6SgRIhUqhGLVtpY5pX-25" value="&lt;div style=&quot;text-align: left;&quot;&gt;&lt;span style=&quot;background-color: transparent; color: light-dark(rgb(0, 0, 0), rgb(255, 255, 255));&quot;&gt;TEST SUMMARY:&lt;/span&gt;&lt;/div&gt;&lt;div style=&quot;text-align: left;&quot;&gt;&lt;span style=&quot;background-color: transparent; color: light-dark(rgb(0, 0, 0), rgb(255, 255, 255));&quot;&gt;git diff&lt;/span&gt;&lt;/div&gt;&lt;div style=&quot;text-align: left;&quot;&gt;last successful deployment&lt;/div&gt;&lt;div&gt;&lt;br&gt;&lt;/div&gt;" style="whiteSpace=wrap;html=1;rounded=0;" vertex="1" parent="1">
          <mxGeometry x="1060" y="300" width="180" height="80" as="geometry" />
        </mxCell>
        <mxCell id="Qh6SgRIhUqhGLVtpY5pX-28" value="&lt;div style=&quot;text-align: left;&quot;&gt;FINAL SUMMARY&lt;br&gt;1. PROD SUMMARY&lt;/div&gt;&lt;div style=&quot;text-align: left;&quot;&gt;2. BETA SUMMARY&lt;/div&gt;&lt;div style=&quot;text-align: left;&quot;&gt;3. TEST SUMMARY&lt;/div&gt;" style="whiteSpace=wrap;html=1;rounded=0;" vertex="1" parent="1">
          <mxGeometry x="1350" y="390" width="180" height="80" as="geometry" />
        </mxCell>
        <mxCell id="Qh6SgRIhUqhGLVtpY5pX-29" style="edgeStyle=orthogonalEdgeStyle;rounded=0;orthogonalLoop=1;jettySize=auto;html=1;entryX=0;entryY=0.588;entryDx=0;entryDy=0;entryPerimeter=0;" edge="1" parent="1" source="Qh6SgRIhUqhGLVtpY5pX-22" target="Qh6SgRIhUqhGLVtpY5pX-28">
          <mxGeometry relative="1" as="geometry" />
        </mxCell>
        <mxCell id="Qh6SgRIhUqhGLVtpY5pX-31" style="edgeStyle=orthogonalEdgeStyle;rounded=0;orthogonalLoop=1;jettySize=auto;html=1;entryX=0;entryY=0.375;entryDx=0;entryDy=0;entryPerimeter=0;" edge="1" parent="1" source="Qh6SgRIhUqhGLVtpY5pX-25" target="Qh6SgRIhUqhGLVtpY5pX-28">
          <mxGeometry relative="1" as="geometry" />
        </mxCell>
      </root>
    </mxGraphModel>
  </diagram>
</mxfile>
